<?xml version="1.0" encoding="utf-8"?>
<!-- Generator: Adobe Illustrator 18.1.0, SVG Export Plug-In . SVG Version: 6.00 Build 0)  -->
<svg version="1.1" id="Lager_1" xmlns="http://www.w3.org/2000/svg" xmlns:xlink="http://www.w3.org/1999/xlink" x="0px" y="0px"
	 viewBox="0 0 350 300" enable-background="new 0 0 350 300" xml:space="preserve">
<g>
	<path fill="#4B606E" d="M40.4,144.4c0-0.9,0.6-1.5,1.8-1.6c-0.1-0.8-0.5-1.5-1.2-1.9c-0.7-0.5-1.5-0.7-2.6-0.7
		c-1.6,0-2.9,0.6-3.9,1.9c-1,1.3-1.5,3-1.5,5.1c0,2.2,0.5,3.9,1.4,5.2c0.9,1.3,2.2,1.9,3.8,1.9c1,0,1.9-0.3,2.7-0.9
		c0.8-0.6,1.3-1.4,1.6-2.4c0.2-0.8,0.4-1.3,0.4-1.4c0.3-0.5,0.6-0.7,1.1-0.7c0.4,0,0.7,0.1,1,0.4c0.3,0.3,0.4,0.6,0.4,1
		c0,0.6-0.2,1.3-0.6,2.1c-0.4,0.8-0.8,1.5-1.3,2c-1.4,1.5-3.2,2.2-5.4,2.2c-2.4,0-4.3-0.8-5.8-2.5c-1.5-1.7-2.2-3.9-2.2-6.6
		c0-2.9,0.8-5.2,2.3-7c1.5-1.7,3.5-2.6,6-2.6c1.9,0,3.4,0.5,4.7,1.5c1.2,1,1.9,2.3,1.9,3.9c0,0.9-0.2,1.6-0.7,2.1
		c-0.5,0.6-1.1,0.8-1.8,0.8c-0.6,0-1.1-0.2-1.5-0.5C40.6,145.3,40.4,144.9,40.4,144.4z"/>
	<path fill="#4B606E" d="M62,155.1V154c-1.3,1.7-2.8,2.6-5.3,2.6c-2.8,0-4.6-0.9-5.6-2.6c-0.5-0.7-0.8-1.6-0.8-2.6
		c0-0.5-0.1-1.5-0.1-3.1v-2.9c0-3.2-0.2-4.8-0.9-4.8c-0.1,0-0.3,0-0.6,0.1c-0.3,0-0.5,0.1-0.7,0.1c-0.8,0-1.2-0.4-1.2-1.1
		c0-0.7,0.5-1.1,1.5-1.1c0.2,0,0.6,0,1,0.1c0.5,0.1,0.8,0.1,1,0.1c0.2,0,0.6,0,1.1-0.1c0.4,0,0.4-0.1,0.4-0.1c0.7,0,0.9,0.4,0.9,1.3
		v0.7v2.3v2.6v2.3c0,2,0.3,3.5,0.6,4.4c0.5,1.5,1.9,2.2,3.9,2.2c1,0,1.9-0.2,2.7-0.7c0.8-0.5,1.2-1.1,1.5-1.8
		c0.4-0.9,0.4-2.6,0.4-5.2v-1.9c0-1.4,0-2.2,0-2.3c0-1.1-0.2-1.7-0.7-1.7c-0.3,0-0.5,0-0.6,0h-0.4c-0.8,0-1.2-0.3-1.2-1
		c0-0.8,0.5-1.2,1.4-1.2c0.2,0,0.5,0,1,0.1c0.4,0,0.8,0.1,1,0.1c0.2,0,0.5,0,0.8-0.1c0.4,0,0.7-0.1,0.8-0.1c0.7,0,1.1,0.4,1.1,1.1
		c0,0.3-0.1,0.6-0.2,0.8c-0.1,0.9-0.3,2.2-0.3,3.9v5.4c0,1.4,0.1,2.2,0.1,2.4c0.1,1.2,0.5,1.9,1,1.9c0.2,0,0.4,0,0.7-0.1
		c0.3-0.1,0.6-0.1,0.7-0.1c0.8,0,1.2,0.4,1.2,1.2c0,0.8-0.5,1.2-1.5,1.2c-0.2,0-0.5,0-0.9-0.1c-0.6-0.1-0.9-0.1-1.1-0.1
		c-0.1,0-0.3,0-0.7,0.1c-0.3,0.1-0.8,0.1-1,0.1C62.6,156.1,62,155.8,62,155.1z"/>
	<path fill="#4B606E" d="M77.8,137.8c2.3,0,3.9,0.9,5.2,2.7V137c0-0.9,0-1.5-0.1-1.7c-0.1-0.7-0.4-1.1-1-1.1c-0.2,0-0.5,0-0.8,0.1
		s-0.6,0.1-0.8,0.1c-0.9,0-1.3-0.4-1.3-1.1c0-0.8,0.6-1.2,1.8-1.2c0.2,0,0.5,0,1,0.1c0.7,0.1,1.1,0.1,1.2,0.1c0.2,0,0.5,0,0.9-0.1
		c0.4-0.1,0.6-0.1,0.8-0.1c0.7,0,0.9,0.5,0.9,1.4v0.4c0,0.1,0,0.7,0,1.9c0,0.1,0,1,0,2.7c0,1.2,0,2.1,0,2.7v3.4v5.9
		c0,1.5,0.1,2.5,0.2,2.9c0.1,0.4,0.4,0.6,0.8,0.6c0.3,0,0.5,0,0.7-0.1c0.4,0,0.6-0.1,0.8-0.1c0.9,0,1.3,0.4,1.3,1.2
		c0,0.8-0.5,1.2-1.6,1.2c-0.2,0-0.6,0-1.1-0.1c-0.5-0.1-0.8-0.1-1.1-0.1c-0.1,0-0.3,0-0.8,0.1c-0.3,0.1-0.6,0.1-0.9,0.1
		c-0.6,0-1.1-0.4-1.1-1.3v-0.2v-0.6c-1.3,1.7-2.9,2.5-5.3,2.5c-2.4,0-4.2-0.9-5.7-2.6c-1.4-1.7-2.1-4-2.1-6.8c0-2.8,0.7-5.1,2.2-6.8
		C73.4,138.7,75.4,137.8,77.8,137.8z M82.8,150.2c0.1-0.8,0.1-1.8,0.1-3c0-1.6-0.1-2.6-0.2-3.2c-0.2-1.2-0.7-2.1-1.5-2.7
		c-0.9-0.8-2-1.2-3.3-1.2c-1.7,0-2.9,0.6-3.9,1.9c-0.9,1.2-1.4,2.9-1.4,5.1c0,2.2,0.5,4,1.5,5.3c1,1.3,2.3,1.9,4,1.9
		c1.3,0,2.3-0.4,3.2-1.1C82.2,152.4,82.7,151.4,82.8,150.2z"/>
	<path fill="#4B606E" d="M98.8,137.8c2.3,0,3.8,0.9,5.2,2.7V137c0-0.9,0-1.5,0-1.7c-0.1-0.7-0.4-1.1-1-1.1c-0.2,0-0.4,0-0.8,0.1
		s-0.6,0.1-0.8,0.1c-0.9,0-1.3-0.4-1.3-1.1c0-0.8,0.6-1.2,1.8-1.2c0.2,0,0.5,0,1,0.1c0.7,0.1,1.1,0.1,1.2,0.1c0.2,0,0.5,0,0.9-0.1
		c0.4-0.1,0.6-0.1,0.8-0.1c0.7,0,0.9,0.5,0.9,1.4v0.4c0,0.1,0.1,0.7,0.1,1.9c0,0.1,0,1,0,2.7c0,1.2,0,2.1,0,2.7v3.4v5.9
		c0,1.5,0.1,2.5,0.2,2.9c0.1,0.4,0.4,0.6,0.9,0.6c0.3,0,0.6,0,0.7-0.1c0.4,0,0.6-0.1,0.8-0.1c0.9,0,1.3,0.4,1.3,1.2
		c0,0.8-0.5,1.2-1.6,1.2c-0.2,0-0.6,0-1.1-0.1c-0.5-0.1-0.8-0.1-1.1-0.1c-0.1,0-0.3,0-0.8,0.1c-0.3,0.1-0.7,0.1-0.9,0.1
		c-0.6,0-1.1-0.4-1.1-1.3v-0.2v-0.6c-1.3,1.7-2.9,2.5-5.2,2.5c-2.4,0-4.2-0.9-5.7-2.6c-1.4-1.7-2.1-4-2.1-6.8c0-2.8,0.7-5.1,2.1-6.8
		C94.5,138.7,96.4,137.8,98.8,137.8z M103.9,150.2c0.1-0.8,0.1-1.8,0.1-3c0-1.6-0.1-2.6-0.2-3.2c-0.2-1.2-0.7-2.1-1.5-2.7
		c-0.9-0.8-2-1.2-3.3-1.2c-1.7,0-2.9,0.6-3.9,1.9c-0.9,1.2-1.4,2.9-1.4,5.1c0,2.2,0.5,4,1.5,5.3c1,1.3,2.3,1.9,4,1.9
		c1.3,0,2.3-0.4,3.2-1.1C103.3,152.4,103.8,151.4,103.9,150.2z"/>
	<path fill="#4B606E" d="M117.1,141.3v10.9c0,1.2,0.6,1.8,1.2,1.8c0.1,0,0.6-0.1,1-0.2c0.3,0,0.5-0.1,0.6-0.1c0.8,0,1.2,0.4,1.2,1.2
		c0,0.8-0.5,1.2-1.4,1.2c-0.4,0-1,0-1.8-0.1c-0.8-0.1-1.4-0.1-1.9-0.1c-0.4,0-0.9,0.2-1.7,0.3c-0.7,0.1-1.3,0.3-1.6,0.3h-0.2
		c-1,0-1.5-0.6-1.5-1.4c0-0.7,0.4-1.2,1.2-1.2c0,0,0.1,0,0.2,0c0.1,0,0.2,0,0.3,0c0.6,0.1,0.9,0.2,1,0.2c0.4,0,0.7-0.2,0.8-0.5
		c0.1-0.4,0-1.3,0-2.8l-0.2-2.5v-5.5v-6.3c0-0.7,0.2-1.2,0.1-1.4c-0.2-0.5-0.4-0.8-0.9-0.8c-0.1,0-0.3,0-0.9,0.1
		c-0.3,0-0.4,0.1-0.6,0.1c-0.8,0-1.2-0.4-1.2-1.1c0-0.8,0.5-1.2,1.4-1.2c0.3,0,0.5,0,0.7,0l0.8,0.1c0.4,0,0.7,0.1,0.9,0.1
		c0.2,0,0.6,0,1.1-0.1c0.5-0.1,0.8-0.1,1.1-0.1c0.5,0,0.8,0.3,0.8,1c0,0.2-0.3,0.4-0.3,0.5C117.4,135.5,117.1,138,117.1,141.3z"/>
	<path fill="#4B606E" d="M138.9,145.7c0,0.9-0.1,1.2-0.2,1.4c-0.1,0.2-0.5,0.1-1,0.1h-11.2c-0.3,0-0.5,0.2-0.6,0.3
		c-0.1,0.1-0.1,0.3-0.1,0.5c0,1.8,0.5,3.3,1.6,4.4c1.1,1.2,2.4,1.8,3.9,1.8c1,0,2-0.3,2.8-0.8c0.9-0.6,1.4-1.3,1.7-2.1l0.3-1
		c0.2-0.6,0.6-0.8,1.2-0.8c0.9,0,1.3,0.4,1.3,1.3c0,1.5-0.8,2.9-2.3,4.1c-1.5,1.2-3.3,1.8-5.3,1.8c-2.5,0-4.4-0.8-5.9-2.5
		c-1.5-1.7-2.2-3.9-2.2-6.7c0-2.9,0.8-5.2,2.3-7c1.5-1.8,3.6-2.7,6-2.7c2.2,0,4,0.7,5.4,2.2C138.2,141.5,138.9,143.4,138.9,145.7z
		 M126.1,144.4c0,0.3,0.3,0.2,0.8,0.2h8.4c0.5,0,0.7,0.2,0.7-0.2c0-1.2-0.5-2.2-1.4-3.1c-0.9-0.9-2-1.3-3.3-1.3
		c-1.3,0-2.5,0.4-3.6,1.3C126.7,142.3,126.1,143.2,126.1,144.4z"/>
</g>
<g>
	<path fill="#4B606E" d="M216,139.5v1c0-1,1.4-1.7,2.1-2.1c0.7-0.4,1.6-0.6,2.7-0.6c2.3,0,3.9,0.9,5,2.7c0.8-1,1.6-1.7,2.4-2.1
		c0.8-0.4,1.9-0.6,3.1-0.6c1.3,0,2.5,0.3,3.6,0.8c1.2,0.6,2.2,1.5,2.7,2.7c0.3,0.8,0.7,2,0.7,3.7v3.4v2.6c0,1-0.2,1.5-0.2,1.8
		c0.1,0.8,0.3,1.3,0.8,1.3c0.2,0,0.3,0,0.7-0.1c0.3-0.1,0.5-0.1,0.7-0.1c0.8,0,1.2,0.4,1.2,1.1c0,0.8-0.5,1.2-1.4,1.2
		c-0.4,0-0.9,0-1.6-0.1c-0.7-0.1-1.3-0.1-1.6-0.1c-0.4,0-1,0-1.7,0.1c-0.8,0.1-1.3,0.1-1.7,0.1c-1,0-1.5-0.4-1.5-1.2
		c0-0.7,0.4-1.1,1.1-1.1c0.1,0,0.3,0,0.7,0.1c0.1,0,0.3,0.1,0.6,0.1c0.4,0,0.9-0.2,1-0.6c0.1-0.4,0.5-1.4,0.5-3v-2.1v-2.3
		c0-1.6-0.4-2.8-0.6-3.5c-0.2-0.7-0.8-1.3-1.5-1.7s-1.5-0.6-2.4-0.6c-1.7,0-3,0.6-3.7,1.7c-0.5,0.9-1,2.5-1,4.8v2.5
		c0,2.2,0.2,3.6,0.3,4.1c0.1,0.6,0.5,0.8,0.9,0.8c0.1,0,0.4,0,0.7-0.1c0.3,0,0.5-0.1,0.6-0.1c0.3,0,0.6,0.1,0.8,0.3
		c0.2,0.2,0.3,0.5,0.3,0.8c0,0.8-0.5,1.1-1.6,1.1c-0.4,0-0.9,0-1.6-0.1c-0.7-0.1-1.2-0.1-1.6-0.1c-0.5,0-1,0-1.6,0.1
		c-0.6,0.1-1.1,0.1-1.5,0.1c-1,0-1.4-0.4-1.4-1.2c0-0.7,0.4-1.1,1.1-1.1c0.3,0,0.5,0,0.6,0.1c0.3,0.1,0.6,0.1,0.7,0.1
		c0.6,0,0.7-0.6,0.7-1.8l-0.1-1.7c0-0.5,0-1,0-1.5c0-0.4,0-0.6,0-0.7v-2.9c0-2-0.1-3.5-0.7-4.3c-0.6-0.8-1.4-1.2-2.8-1.2
		c-1.5,0-2.6,0.6-3.5,1.7c-0.7,0.9-0.9,2.5-0.9,4.8v4.7c0,0.9,0,1.5,0,1.7c0.1,0.8,0.3,1.2,0.7,1.2c0.1,0,0.3-0.1,0.7-0.2
		c0,0,0.1-0.1,0.2-0.1s0.2,0,0.2,0c0.9,0,1.4,0.4,1.4,1.2c0,0.7-0.5,1.1-1.6,1.1c-0.4,0-0.9,0-1.5-0.1c-0.8-0.1-1.5-0.1-2-0.1
		c-0.3,0-0.8,0-1.5,0.1c-1,0.1-1.6,0.1-1.8,0.1c-0.9,0-1.4-0.4-1.4-1.2c0-0.7,0.5-1.1,1.4-1.1c0,0,0.1,0,0.2,0s0.2,0.1,0.2,0.1
		l0.9,0.2c0,0,0.1,0,0.2,0c0.6,0,1.1-0.6,1.1-1.7v-2V145c0-2-0.1-3.2-0.2-3.7c-0.1-0.5-0.4-0.7-0.9-0.7c-0.1,0-0.4,0.1-1,0.2
		c-0.2,0-0.4,0.1-0.6,0.1c-0.9,0-1.3-0.4-1.3-1.1c0-0.8,0.5-1.2,1.4-1.2c0.3,0,0.6-0.3,1.1-0.2c0.4,0,0.8-0.2,1.2-0.2
		c0.1,0,0.2,0,0.4,0s0.2,0,0.2,0h0.8h0.1C215.2,138,216,138.8,216,139.5z"/>
	<path fill="#4B606E" d="M250.9,156.6c-2.5,0-4.4-0.8-5.9-2.5c-1.5-1.7-2.2-4-2.2-6.8c0-2.9,0.7-5.1,2.2-6.8c1.5-1.7,3.5-2.5,6-2.5
		c2.6,0,4.6,0.8,6,2.5c1.5,1.7,2.2,3.9,2.2,6.8c0,2.9-0.8,5.2-2.3,6.9C255.5,155.7,253.5,156.6,250.9,156.6z M251.1,140.1
		c-1.6,0-2.7,0.6-3.6,1.7c-0.9,1.1-1.3,2.8-1.3,4.9v0.5c0,2.2,0.2,3.9,1.1,5.2c0.9,1.3,2.1,1.9,3.8,1.9c1.7,0,3-0.6,4-1.9
		c1-1.3,1.4-3,1.4-5.2C256.5,142.5,254.7,140.1,251.1,140.1z"/>
	<path fill="#4B606E" d="M267.2,139.5v1c1.3-1.8,3.4-2.7,5.7-2.7c1.3,0,2.5,0.3,3.6,1c1.1,0.6,1.7,1.4,2.1,2.4
		c0.3,0.8,0.3,1.8,0.3,3.1v6.7c0,1,0.2,1.6,0.2,1.8c0.1,0.8,0.5,1.2,1,1.2c0.2,0,0.5,0,0.9-0.1c0.3-0.1,0.6-0.1,0.7-0.1
		c0.3,0,0.6,0.1,0.8,0.3c0.2,0.2,0.3,0.5,0.3,0.8c0,0.4-0.1,0.6-0.4,0.9c-0.3,0.2-0.6,0.4-1,0.4c-0.3,0-0.9,0-1.6-0.1
		c-0.7-0.1-1.5-0.1-2.1-0.1c-0.6,0-1.1,0-1.5,0.1c-1.2,0.1-1.8,0.2-1.9,0.2c-0.9,0-1.4-0.4-1.4-1.2c0-0.7,0.4-1.1,1.2-1.1
		c0.2,0,0.4,0,0.6,0.1c0.5,0.1,0.6,0.1,0.7,0.1c0.6,0,0.8-0.6,0.8-1.9v-1.8v-2.1v-2.7c0-1.2,0.1-2.1,0-2.6c-0.2-0.9-0.6-1.6-1.3-2.1
		c-0.8-0.5-1.6-0.8-2.6-0.8c-1.9,0-3.4,0.7-4.3,2c-0.6,0.9-1.1,2.5-1.1,4.7v4.7c0,1,0.3,1.7,0.5,2.1c0.1,0.4,0.5,0.6,0.9,0.6
		c0.2,0,0.5,0,0.8-0.1c0.3-0.1,0.6-0.1,0.8-0.1c0.7,0,1.1,0.4,1.1,1.2c0,0.8-0.5,1.1-1.4,1.1c-0.2,0-0.8-0.1-1.8-0.2
		c-0.5-0.1-1.1-0.1-1.7-0.1c-0.5,0-1.1,0-2,0.1c-1,0.1-1.6,0.2-1.8,0.2c-1,0-1.5-0.4-1.5-1.2c0-0.7,0.4-1.1,1.1-1.1
		c0.1,0,0.3,0,0.7,0.1c0.3,0.1,0.4,0.1,0.7,0.1c0.7,0,0.9-0.7,0.9-2v-3.9v-4.3v-1.2c0-0.8,0.1-1.3-0.1-1.6c-0.2-0.3-0.3-0.4-0.7-0.4
		c-0.2,0-0.3,0-0.7,0.1c-0.3,0.1-0.5,0.1-0.7,0.1c-0.9,0-1.3-0.4-1.3-1.1c0-0.8,0.5-1.2,1.6-1.2c0.1,0,0.3,0,0.4,0l1.3,0.1
		c0.4,0,0.7,0,1-0.1c0.6-0.1,0.8-0.1,0.8-0.1C267,138.4,267.2,138.8,267.2,139.5z"/>
	<path fill="#4B606E" d="M292,137.8c1.6,0,2.8,0.4,4.1,1.2v-0.1c0-0.9,0.2-1.3,1-1.3c0.8,0,1.1,0.4,1.1,1.1c0,0.1-0.1,0.5-0.1,1.1
		c-0.1,0.5-0.1,0.9-0.1,1.4c0,0.3,0,0.7,0.1,1.2c0.1,0.5,0.1,0.9,0.1,1.2c0,0.9-0.2,1.3-1,1.3c-0.7,0-1-0.4-1-1.1v-1.2
		c0-0.7-0.6-1.3-1.4-1.8c-0.8-0.5-1.8-0.8-2.8-0.8c-1.1,0-2,0.3-2.7,0.8c-0.7,0.6-1.1,1.2-1.1,2.1c0,1.5,1,2.4,3.1,2.7l2,0.3
		c4,0.5,6,2.2,6,5c0,1.7-0.6,3.1-1.9,4.1c-1.3,1-3,1.6-5.1,1.6c-1.9,0-3.8-0.6-5.1-1.7c0,0.2,0,0.5,0,0.7c0,0.8-0.3,1.3-1.1,1.3
		c-0.9,0-1.3-0.5-1.3-1.4c0,0.2,0.1-0.4,0.2-1.8c0-0.3,0.1-0.7,0.1-1c0-0.6,0-1.1-0.1-1.6c-0.1-0.5-0.1-0.9-0.1-1.2
		c0-0.8,0.4-1.2,1.1-1.2c0.5,0,0.8,0.1,0.9,0.4c0.1,0.2,0.2,0.9,0.2,1.9s0.5,1.8,1.6,2.5c1,0.6,2.3,0.9,3.9,0.9
		c1.1,0,2.1-0.3,2.8-0.9c0.7-0.6,1.1-1.3,1.1-2.2c0-1.6-1.3-2.5-3.8-2.8c-2.4-0.3-4.3-0.7-5.5-1.4c-1.3-0.7-1.9-1.9-1.9-3.6
		c0-1.6,0.7-3,1.9-4C288.3,138.3,290,137.8,292,137.8z"/>
	<path fill="#4B606E" d="M311.8,151.1v-2.2c0-1,0.3-1.4,1.1-1.4s1.1,0.5,1.1,1.6c0,2.6-0.4,4.3-1,5.3c-0.9,1.4-2.4,2-4.4,2
		c-1.9,0-3.1-0.6-3.9-1.8c-0.6-0.9-0.8-2.3-0.8-4.4v-8.4c0-0.5-0.4-1.1-0.9-1.1h-1.1c-0.4,0-0.7,0.1-1-0.2c-0.3-0.2-0.4-0.4-0.4-0.8
		c0-0.3,0.1-0.8,0.4-1.1c0.2-0.3,0.5-0.6,0.8-0.6h1.4c0.4,0,0.8,0.3,0.8-0.2v-3.6c0-0.9,0.5-1.3,1.4-1.3c0.8,0,1.3,0.4,1.3,1.3v3.8
		c0,0.4,0.1,0,0.5,0h3.8c0.9,0,1.3,0.5,1.3,1.3c0,0.9-0.5,1.3-1.4,1.3h-3.9c-0.3,0-0.3,0.6-0.3,1.1v8.6c0,2.5,0.9,3.7,2.6,3.7
		C310.8,154.1,311.8,153.1,311.8,151.1z"/>
	<path fill="#4B606E" d="M331.7,145.7c0,0.9-0.1,1.2-0.2,1.4c-0.1,0.2-0.5,0.1-1,0.1h-11.2c-0.3,0-0.5,0.2-0.6,0.3
		c-0.1,0.1-0.1,0.3-0.1,0.5c0,1.8,0.5,3.3,1.6,4.4c1.1,1.2,2.4,1.8,3.9,1.8c1,0,2-0.3,2.8-0.8c0.9-0.6,1.4-1.3,1.7-2.1l0.3-1
		c0.2-0.6,0.6-0.8,1.2-0.8c0.9,0,1.3,0.4,1.3,1.3c0,1.5-0.8,2.9-2.3,4.1c-1.5,1.2-3.3,1.8-5.3,1.8c-2.5,0-4.4-0.8-5.9-2.5
		c-1.5-1.7-2.2-3.9-2.2-6.7c0-2.9,0.8-5.2,2.3-7c1.5-1.8,3.6-2.7,6-2.7c2.2,0,4,0.7,5.4,2.2C331,141.5,331.7,143.4,331.7,145.7z
		 M319,144.4c0,0.3,0.3,0.2,0.8,0.2h8.4c0.5,0,0.7,0.2,0.7-0.2c0-1.2-0.5-2.2-1.4-3.1c-0.9-0.9-2-1.3-3.3-1.3
		c-1.3,0-2.5,0.4-3.6,1.3C319.5,142.3,319,143.2,319,144.4z"/>
	<path fill="#4B606E" d="M339.4,139.4v1c1.3-1.7,3-2.6,5-2.6c1.6,0,3,0.5,4.1,1.4c1,0.9,1.6,2.1,1.6,3.6c0,1-0.2,1.9-0.8,2.5
		s-1.2,1-2,1c-0.5,0-1-0.2-1.4-0.5c-0.4-0.3-0.6-0.7-0.6-1.2c0-0.4,0.1-0.7,0.4-1c0.3-0.3,0.6-0.4,1-0.4c0.1,0,0.2,0,0.5,0.1
		c0.1-0.3,0.2-0.5,0.2-0.8c0-0.7-0.3-1.3-0.9-1.7c-0.6-0.5-1.3-0.7-2.2-0.7c-1.8,0-3.4,0.8-4,2.5c-0.4,1-0.9,2.5-0.9,4.6v2.3
		c0,1.6,0.3,2.4,0.4,2.6c0.1,1.3,0.6,2,1.2,2c0.3,0,0.7,0,1-0.1c0.3-0.1,0.5-0.1,0.7-0.1c0.7,0,1.1,0.5,1.1,1.2
		c0,0.8-0.5,1.3-1.4,1.3h-0.1c-0.4,0-0.9-0.2-1.6-0.3c-0.7-0.1-1.2-0.2-1.6-0.2c-0.9,0-1.7,0-2.2,0l-2,0.2c-1,0-1.4-0.4-1.4-1.2
		c0-0.7,0.4-1.1,1.3-1.1c0.2,0,0.4,0,0.5,0l0.5,0.1c0.2,0,0.1,0.1,0.2,0.1c0.6,0,0.6-0.5,0.6-1.6v-1.8l0.2-8
		c-0.1-1.4-0.3-2.1-0.9-2.1c-0.2,0-0.4,0-0.7,0.1s-0.5,0.1-0.7,0.1c-0.8,0-1.1-0.4-1.1-1.1c0-0.8,0.5-1.2,1.5-1.2
		c0.2,0,0.6,0,1.1,0.1c0.5,0.1,0.8,0.1,1.1,0.1c0.2,0,0.5,0,0.9-0.1c0.2-0.1,0.3-0.1,0.5-0.1C339.2,138.4,339.4,138.7,339.4,139.4z"
		/>
</g>
<g>
	<path fill="#20AB9E" d="M195.4,140.5c0-9.9-7.8-7.8-20.3-7.8c-12.5,0-19.8-1.4-19.8,8.6c0,4.5-8.2,13.8,2.3,17.1
		c1.5,0.5,2.8,0.2,4.2,0.7c0.6,2.4,0.8,4.2,2,6.2c2,3.6,5,0.4,5,0.4l3.2,0.5l3.1-1.5l3.1,1.7l2.9-0.7c0,0,3.4,2.8,5.2-0.4
		c1-1.8,1.3-3.8,2-6.3c2-0.9,4-0.7,6.4-1.6C204.2,154.2,195.4,144.7,195.4,140.5z"/>
	<path fill="#E0E4E6" d="M195.1,140.7c0-12.1-7.6-17.7-20.1-17.7c-12.5,0-20.1,5.5-19.3,17.5c0.4,7.4-6.5,14.6,2.3,15
		c1.6,0.1,3,0.6,4.4,1.3c0.6,2.9,0.2,3.3,1.3,5.8c2,4.4,5,0.5,5,0.5l3.1,1.4l3.2-1.6l3.4,1.6l2.7-1.4c0,0,3.4,3.5,5.2-0.5
		c1-2.2,0.7-2.5,1.3-5.4c2-1,4.1-1.9,6.6-2C201.3,155,195.1,145.8,195.1,140.7z"/>
	<g>
		<path fill="#20AB9E" d="M166.4,149c0,3-2,2.6-4.5,2.6s-4.5-2.5-4.5-5.5s2-3.6,4.5-3.6S166.4,145.9,166.4,149z"/>
		<path fill="#4B606E" d="M166.4,149c0,2.5-2,3.4-4.5,3.4s-4.5-2-4.5-4.5s2-2.9,4.5-2.9S166.4,146.5,166.4,149z"/>
	</g>
	<g>
		<path fill="#20AB9E" d="M184.3,149c0,3,2,2.6,4.5,2.6c2.5,0,4.5-2.5,4.5-5.5s-2-3.6-4.5-3.6C186.3,142.6,184.3,145.9,184.3,149z"
			/>
		<path fill="#4B606E" d="M184.3,149c0,2.5,2,3.4,4.5,3.4c2.5,0,4.5-2,4.5-4.5s-2-2.9-4.5-2.9C186.3,145,184.3,146.5,184.3,149z"/>
	</g>
	<g>
		<path fill="#20AB9E" d="M172.5,154.2l1.8-4.7c0.4-0.8,1.5-0.8,2,0l1.9,4.7"/>
		<path fill="#4B606E" d="M172.5,154.2l1.8-3.3c0.4-0.8,1.5-0.8,2,0l1.9,3.3"/>
	</g>
</g>
<polygon fill="#4B606E" points="178.1,113.1 174.9,118.6 171.8,113.1 174.9,94.2 "/>
<polygon fill="#4B606E" points="202.4,127.4 199.4,128.2 200.2,125.3 204.3,123.3 "/>
<polygon fill="#4B606E" points="150,126.3 150.8,129.1 147.9,128.3 146.1,124.4 "/>
<polygon fill="#4B606E" points="162.3,117.5 161.8,121.7 158.5,119.1 158.1,112.9 "/>
<polygon fill="#4B606E" points="191.8,118.7 188.5,121.3 187.9,117.1 192.1,112.5 "/>
<path fill="#E9ECEE" d="M188.1,132.7c0,3.9-5.9,3.8-13.2,3.8s-13.2,0-13.2-3.8c0-3.9,5.9-7,13.2-7S188.1,128.8,188.1,132.7z"/>
</svg>
